<svg xmlns="http://www.w3.org/2000/svg" xmlns:xlink="http://www.w3.org/1999/xlink" width="1200" zoomAndPan="magnify" viewBox="0 0 900 359.999987" height="480" preserveAspectRatio="xMidYMid meet" version="1.0"><defs><clipPath id="101e8d521e"><path d="M 3.578125 38.996094 L 83.300781 38.996094 L 83.300781 314.507812 L 3.578125 314.507812 Z M 3.578125 38.996094 " clip-rule="nonzero"/></clipPath></defs><path fill="#ffffff" d="M 131.292969 69.816406 C 144.570312 69.816406 155.054688 73.859375 162.742188 81.953125 C 170.371094 89.980469 174.179688 101.039062 174.179688 115.125 L 174.179688 253.828125 C 174.179688 262.957031 172.453125 270.925781 169 277.738281 C 165.453125 284.726562 160.421875 290.058594 153.898438 293.726562 C 147.488281 297.332031 139.949219 299.136719 131.292969 299.136719 L 92.960938 299.136719 L 92.960938 69.816406 Z M 131.292969 78.867188 L 97.488281 78.867188 L 97.488281 74.339844 L 102.011719 74.339844 L 102.011719 294.605469 L 97.488281 294.605469 L 97.488281 290.078125 L 131.292969 290.078125 C 138.371094 290.078125 144.425781 288.660156 149.460938 285.832031 C 154.382812 283.058594 158.207031 278.996094 160.925781 273.644531 C 163.726562 268.121094 165.128906 261.515625 165.128906 253.828125 L 165.128906 115.125 C 165.128906 103.445312 162.148438 94.472656 156.175781 88.191406 C 150.277344 81.972656 141.980469 78.867188 131.292969 78.867188 Z M 142.050781 113.777344 C 142.050781 109.023438 141.050781 105.503906 139.039062 103.230469 C 137.160156 101.117188 134.578125 100.0625 131.292969 100.0625 L 120.289062 100.0625 L 120.289062 95.53125 L 124.816406 95.53125 L 124.816406 273.410156 L 120.289062 273.410156 L 120.289062 268.882812 L 131.292969 268.882812 C 134.578125 268.882812 137.160156 267.828125 139.039062 265.710938 C 141.050781 263.441406 142.050781 259.929688 142.050781 255.167969 Z M 151.109375 113.777344 L 151.109375 255.167969 C 151.109375 262.210938 149.34375 267.730469 145.8125 271.714844 C 142.144531 275.863281 137.296875 277.941406 131.292969 277.941406 L 115.765625 277.941406 L 115.765625 91.011719 L 131.292969 91.011719 C 137.296875 91.011719 142.144531 93.082031 145.8125 97.226562 C 149.34375 101.214844 151.109375 106.730469 151.109375 113.777344 Z M 151.109375 113.777344 " fill-opacity="1" fill-rule="nonzero"/><path fill="#ffffff" d="M 225.457031 301.285156 C 216.976562 301.285156 209.53125 299.476562 203.117188 295.867188 C 196.589844 292.199219 191.597656 286.90625 188.140625 279.996094 C 184.785156 273.277344 183.101562 265.355469 183.101562 256.242188 L 183.101562 112.703125 C 183.101562 103.761719 184.785156 95.933594 188.140625 89.21875 C 191.589844 82.328125 196.566406 76.996094 203.074219 73.238281 C 209.496094 69.523438 216.957031 67.667969 225.457031 67.667969 C 233.953125 67.667969 241.359375 69.472656 247.695312 73.089844 C 254.113281 76.757812 259.09375 82.082031 262.632812 89.0625 C 266.089844 95.875 267.816406 103.757812 267.816406 112.703125 L 267.816406 256.242188 C 267.816406 265.183594 266.140625 273.011719 262.777344 279.726562 C 259.332031 286.621094 254.351562 291.949219 247.851562 295.707031 C 241.425781 299.425781 233.960938 301.285156 225.457031 301.285156 Z M 225.457031 292.226562 C 232.34375 292.226562 238.292969 290.777344 243.316406 287.871094 C 248.257812 285.011719 252.042969 280.949219 254.675781 275.683594 C 257.398438 270.234375 258.765625 263.757812 258.765625 256.242188 L 258.765625 112.703125 C 258.765625 105.199219 257.359375 98.683594 254.558594 93.160156 C 251.835938 87.796875 248.050781 83.726562 243.199219 80.957031 C 238.261719 78.128906 232.347656 76.71875 225.457031 76.71875 C 218.582031 76.71875 212.628906 78.175781 207.601562 81.078125 C 202.664062 83.933594 198.875 87.996094 196.242188 93.269531 C 193.515625 98.710938 192.160156 105.191406 192.160156 112.703125 L 192.160156 256.242188 C 192.160156 263.933594 193.515625 270.507812 196.242188 275.949219 C 198.867188 281.203125 202.640625 285.210938 207.558594 287.976562 C 212.589844 290.808594 218.5625 292.226562 225.457031 292.226562 Z M 225.457031 270.230469 C 228.363281 270.230469 230.707031 269.1875 232.484375 267.109375 C 234.445312 264.828125 235.421875 261.382812 235.421875 256.777344 L 235.421875 112.167969 C 235.421875 107.558594 234.445312 104.117188 232.484375 101.835938 C 230.707031 99.757812 228.363281 98.722656 225.457031 98.722656 C 222.40625 98.722656 220.035156 99.738281 218.347656 101.777344 C 216.453125 104.066406 215.5 107.535156 215.5 112.167969 L 215.5 256.777344 C 215.5 261.410156 216.453125 264.878906 218.347656 267.167969 C 220.035156 269.207031 222.40625 270.230469 225.457031 270.230469 Z M 225.457031 279.28125 C 219.570312 279.28125 214.875 277.171875 211.375 272.945312 C 208.085938 268.980469 206.445312 263.589844 206.445312 256.777344 L 206.445312 112.167969 C 206.445312 105.359375 208.085938 99.964844 211.375 96 C 214.875 91.78125 219.570312 89.664062 225.457031 89.664062 C 231.140625 89.664062 235.777344 91.761719 239.363281 95.941406 C 242.769531 99.917969 244.472656 105.328125 244.472656 112.167969 L 244.472656 256.777344 C 244.472656 263.617188 242.769531 269.023438 239.363281 273.003906 C 235.777344 277.191406 231.140625 279.28125 225.457031 279.28125 Z M 225.457031 279.28125 " fill-opacity="1" fill-rule="nonzero"/><path fill="#ffffff" d="M 287.167969 69.816406 L 314.386719 69.816406 L 334.5625 199.203125 L 330.09375 199.902344 L 330.09375 195.375 L 331.433594 195.375 L 331.433594 199.902344 L 326.960938 199.210938 L 346.871094 69.816406 L 378.449219 69.816406 L 387.382812 299.136719 L 356.792969 299.136719 L 352.933594 138.839844 L 357.460938 138.730469 L 357.460938 143.261719 L 356.386719 143.261719 L 356.386719 138.730469 L 360.84375 139.515625 L 339.796875 259.160156 L 321.457031 259.160156 L 300.683594 139.5 L 305.140625 138.730469 L 305.140625 143.261719 L 303.800781 143.261719 L 303.800781 138.730469 L 308.328125 138.847656 L 304.1875 299.136719 L 273.601562 299.136719 L 282.820312 69.816406 Z M 287.167969 78.867188 L 287.167969 74.339844 L 291.691406 74.519531 L 282.839844 294.789062 L 278.308594 294.605469 L 278.308594 290.078125 L 299.777344 290.078125 L 299.777344 294.605469 L 295.246094 294.488281 L 299.386719 134.203125 L 308.949219 134.203125 L 329.726562 253.855469 L 325.261719 254.628906 L 325.261719 250.101562 L 335.996094 250.101562 L 335.996094 254.628906 L 331.535156 253.847656 L 352.582031 134.203125 L 361.878906 134.203125 L 365.742188 294.496094 L 361.214844 294.605469 L 361.214844 290.078125 L 382.679688 290.078125 L 382.679688 294.605469 L 378.152344 294.78125 L 369.566406 74.519531 L 374.09375 74.339844 L 374.09375 78.867188 L 350.75 78.867188 L 350.75 74.339844 L 355.230469 75.03125 L 335.320312 204.425781 L 326.21875 204.425781 L 306.03125 75.035156 L 310.511719 74.339844 L 310.511719 78.867188 Z M 287.167969 78.867188 " fill-opacity="1" fill-rule="nonzero"/><path fill="#ffffff" d="M 395.324219 69.816406 L 427.449219 69.816406 L 427.449219 299.136719 L 395.324219 299.136719 Z M 404.375 78.867188 L 404.375 290.078125 L 418.394531 290.078125 L 418.394531 78.867188 Z M 404.375 78.867188 " fill-opacity="1" fill-rule="nonzero"/><path fill="#ffffff" d="M 443.582031 69.816406 L 470.789062 69.816406 L 508.894531 234.023438 L 504.480469 235.046875 L 504.480469 230.515625 L 505.820312 230.515625 L 505.820312 235.046875 L 501.292969 235.105469 L 499.085938 69.816406 L 529.398438 69.816406 L 529.398438 299.136719 L 497.390625 299.136719 L 459.289062 133.847656 L 463.703125 132.824219 L 463.703125 137.351562 L 462.628906 137.351562 L 462.628906 132.824219 L 467.15625 132.773438 L 469.085938 299.136719 L 439.054688 299.136719 L 439.054688 69.816406 Z M 443.582031 78.867188 L 443.582031 74.339844 L 448.105469 74.339844 L 448.105469 294.605469 L 443.582031 294.605469 L 443.582031 290.078125 L 464.503906 290.078125 L 464.503906 294.605469 L 459.976562 294.660156 L 458.046875 128.300781 L 467.308594 128.300781 L 505.40625 293.589844 L 500.996094 294.605469 L 500.996094 290.078125 L 524.867188 290.078125 L 524.867188 294.605469 L 520.34375 294.605469 L 520.34375 74.339844 L 524.867188 74.339844 L 524.867188 78.867188 L 503.671875 78.867188 L 503.671875 74.339844 L 508.203125 74.28125 L 510.40625 239.574219 L 500.882812 239.574219 L 462.777344 75.367188 L 467.191406 74.339844 L 467.191406 78.867188 Z M 443.582031 78.867188 " fill-opacity="1" fill-rule="nonzero"/><path fill="#ffffff" d="M 582.015625 301.285156 C 573.535156 301.285156 566.085938 299.476562 559.675781 295.867188 C 553.148438 292.199219 548.152344 286.90625 544.699219 279.996094 C 541.339844 273.277344 539.65625 265.355469 539.65625 256.242188 L 539.65625 112.703125 C 539.65625 103.761719 541.339844 95.933594 544.699219 89.21875 C 548.144531 82.328125 553.121094 76.996094 559.628906 73.238281 C 566.054688 69.523438 573.515625 67.667969 582.015625 67.667969 C 590.511719 67.667969 597.917969 69.472656 604.25 73.089844 C 610.667969 76.757812 615.652344 82.082031 619.191406 89.0625 C 622.644531 95.875 624.371094 103.757812 624.371094 112.703125 L 624.371094 256.242188 C 624.371094 265.183594 622.695312 273.011719 619.332031 279.726562 C 615.890625 286.621094 610.910156 291.949219 604.40625 295.707031 C 597.980469 299.425781 590.515625 301.285156 582.015625 301.285156 Z M 582.015625 292.226562 C 588.898438 292.226562 594.851562 290.777344 599.871094 287.871094 C 604.8125 285.011719 608.597656 280.949219 611.230469 275.683594 C 613.957031 270.234375 615.320312 263.757812 615.320312 256.242188 L 615.320312 112.703125 C 615.320312 105.199219 613.917969 98.683594 611.117188 93.160156 C 608.390625 87.796875 604.605469 83.726562 599.753906 80.957031 C 594.820312 78.128906 588.90625 76.71875 582.015625 76.71875 C 575.136719 76.71875 569.1875 78.175781 564.160156 81.078125 C 559.222656 83.933594 555.429688 87.996094 552.796875 93.269531 C 550.074219 98.710938 548.714844 105.191406 548.714844 112.703125 L 548.714844 256.242188 C 548.714844 263.933594 550.074219 270.507812 552.796875 275.949219 C 555.425781 281.203125 559.195312 285.210938 564.113281 287.976562 C 569.148438 290.808594 575.117188 292.226562 582.015625 292.226562 Z M 582.015625 270.230469 C 584.921875 270.230469 587.261719 269.1875 589.042969 267.109375 C 591 264.828125 591.976562 261.382812 591.976562 256.777344 L 591.976562 112.167969 C 591.976562 107.558594 591 104.117188 589.042969 101.835938 C 587.261719 99.757812 584.921875 98.722656 582.015625 98.722656 C 578.960938 98.722656 576.59375 99.738281 574.90625 101.777344 C 573.007812 104.066406 572.058594 107.535156 572.058594 112.167969 L 572.058594 256.777344 C 572.058594 261.410156 573.007812 264.878906 574.90625 267.167969 C 576.59375 269.207031 578.960938 270.230469 582.015625 270.230469 Z M 582.015625 279.28125 C 576.128906 279.28125 571.429688 277.171875 567.929688 272.945312 C 564.644531 268.980469 563 263.589844 563 256.777344 L 563 112.167969 C 563 105.359375 564.644531 99.964844 567.929688 96 C 571.429688 91.78125 576.128906 89.664062 582.015625 89.664062 C 587.695312 89.664062 592.335938 91.761719 595.917969 95.941406 C 599.328125 99.917969 601.03125 105.328125 601.03125 112.167969 L 601.03125 256.777344 C 601.03125 263.617188 599.328125 269.023438 595.917969 273.003906 C 592.335938 277.191406 587.695312 279.28125 582.015625 279.28125 Z M 582.015625 279.28125 " fill-opacity="1" fill-rule="nonzero"/><path fill="#ffffff" d="M 662.503906 194.234375 L 661.160156 194.234375 L 661.160156 189.707031 L 665.6875 189.667969 L 666.527344 299.136719 L 634.367188 299.136719 L 634.367188 69.816406 L 666.527344 69.816406 L 665.6875 173.375 L 661.160156 173.339844 L 661.160156 168.808594 L 662.769531 168.808594 L 662.769531 173.339844 L 658.429688 172.070312 L 688.351562 69.816406 L 723.253906 69.816406 L 686.386719 180.136719 L 682.089844 178.707031 L 686.402344 177.34375 L 724.75 299.136719 L 688.304688 299.136719 L 658.144531 190.921875 L 662.503906 189.707031 Z M 665.941406 185.175781 L 696.109375 293.390625 L 691.75 294.605469 L 691.75 290.078125 L 718.578125 290.078125 L 718.578125 294.605469 L 714.257812 295.964844 L 677.328125 178.664062 L 712.671875 72.910156 L 716.96875 74.339844 L 716.96875 78.867188 L 691.75 78.867188 L 691.75 74.339844 L 696.089844 75.613281 L 666.167969 177.867188 L 656.597656 177.867188 L 657.4375 74.304688 L 661.96875 74.339844 L 661.96875 78.867188 L 638.898438 78.867188 L 638.898438 74.339844 L 643.417969 74.339844 L 643.417969 294.605469 L 638.898438 294.605469 L 638.898438 290.078125 L 661.96875 290.078125 L 661.96875 294.605469 L 657.4375 294.640625 L 656.597656 185.175781 Z M 665.941406 185.175781 " fill-opacity="1" fill-rule="nonzero"/><path fill="#ffffff" d="M 779.476562 235.816406 L 753.453125 235.816406 L 753.453125 231.289062 L 757.957031 231.746094 L 751.105469 299.136719 L 719.3125 299.136719 L 749.753906 69.542969 L 783.441406 69.542969 L 813.886719 299.136719 L 781.824219 299.136719 L 774.972656 231.746094 L 779.476562 231.289062 Z M 783.570312 226.765625 L 790.421875 294.148438 L 785.917969 294.605469 L 785.917969 290.078125 L 808.71875 290.078125 L 808.71875 294.605469 L 804.234375 295.203125 L 774.992188 74.667969 L 779.476562 74.074219 L 779.476562 78.601562 L 753.71875 78.601562 L 753.71875 74.074219 L 758.210938 74.667969 L 728.964844 295.203125 L 724.476562 294.605469 L 724.476562 290.078125 L 747.015625 290.078125 L 747.015625 294.605469 L 742.507812 294.148438 L 749.367188 226.765625 Z M 772.824219 211.089844 L 762.636719 111.015625 L 767.136719 110.5625 L 767.136719 115.085938 L 765.792969 115.085938 L 765.792969 110.5625 L 770.300781 111.015625 L 760.105469 211.089844 L 755.601562 210.628906 L 755.601562 206.105469 L 777.335938 206.105469 L 777.335938 210.628906 Z M 782.339844 215.160156 L 750.589844 215.160156 L 761.703125 106.035156 L 771.226562 106.035156 L 781.835938 210.171875 Z M 782.339844 215.160156 " fill-opacity="1" fill-rule="nonzero"/><path fill="#ffffff" d="M 855.402344 301.285156 C 842.542969 301.285156 832.449219 297.671875 825.125 290.453125 C 817.789062 283.214844 814.121094 272.796875 814.121094 259.191406 L 814.121094 217.371094 L 846.511719 217.371094 L 846.511719 258.925781 C 846.511719 263.550781 847.328125 266.824219 848.945312 268.761719 C 850.363281 270.453125 852.425781 271.296875 855.136719 271.296875 C 857.480469 271.296875 859.316406 270.5 860.644531 268.902344 C 862.183594 267.058594 862.945312 264.359375 862.945312 260.800781 L 862.945312 237.730469 C 862.945312 231.644531 862.097656 226.253906 860.402344 221.5625 C 858.691406 216.828125 856.546875 212.816406 853.980469 209.53125 C 851.203125 205.964844 847.355469 201.550781 842.4375 196.28125 C 836.40625 189.886719 831.59375 184.199219 827.992188 179.210938 C 824.238281 174.015625 821.035156 167.542969 818.390625 159.777344 C 815.722656 151.96875 814.390625 142.808594 814.390625 132.292969 L 814.390625 108.679688 C 814.390625 100.792969 815.988281 93.753906 819.183594 87.554688 C 822.464844 81.203125 827.226562 76.285156 833.476562 72.796875 C 839.625 69.375 846.746094 67.667969 854.867188 67.667969 C 867.214844 67.667969 877.011719 71.335938 884.25 78.671875 C 891.464844 85.996094 895.074219 96 895.074219 108.679688 L 895.074219 151.574219 L 862.679688 151.574219 L 862.679688 108.953125 C 862.679688 105.035156 861.910156 102.15625 860.378906 100.3125 C 859.046875 98.714844 857.296875 97.914062 855.136719 97.914062 C 852.722656 97.914062 850.757812 98.761719 849.242188 100.445312 C 847.605469 102.261719 846.785156 104.921875 846.785156 108.414062 L 846.785156 131.21875 C 846.785156 137.296875 847.632812 142.632812 849.320312 147.226562 C 851.042969 151.890625 853.234375 155.964844 855.90625 159.449219 C 858.761719 163.160156 862.539062 167.457031 867.25 172.339844 L 867.289062 172.386719 L 867.328125 172.425781 C 873.351562 178.992188 878.152344 184.761719 881.746094 189.738281 C 885.492188 194.933594 888.695312 201.410156 891.347656 209.167969 C 894.015625 216.976562 895.347656 226.136719 895.347656 236.65625 L 895.347656 261.066406 C 895.347656 268.980469 893.734375 275.949219 890.519531 281.984375 C 887.234375 288.136719 882.515625 292.910156 876.363281 296.296875 C 870.320312 299.621094 863.335938 301.285156 855.402344 301.285156 Z M 855.402344 292.226562 C 861.78125 292.226562 867.3125 290.9375 872.003906 288.355469 C 876.578125 285.839844 880.089844 282.292969 882.53125 277.71875 C 885.035156 273.015625 886.289062 267.472656 886.289062 261.066406 L 886.289062 236.65625 C 886.289062 227.140625 885.117188 218.957031 882.777344 212.089844 C 880.421875 205.1875 877.625 199.5 874.40625 195.039062 C 871.019531 190.351562 866.433594 184.855469 860.648438 178.546875 L 863.988281 175.484375 L 860.726562 178.628906 C 855.785156 173.5 851.78125 168.945312 848.726562 164.960938 C 845.496094 160.753906 842.863281 155.882812 840.828125 150.359375 C 838.761719 144.753906 837.726562 138.375 837.726562 131.21875 L 837.726562 108.414062 C 837.726562 102.605469 839.324219 97.925781 842.515625 94.382812 C 845.828125 90.699219 850.03125 88.863281 855.136719 88.863281 C 860.125 88.863281 864.1875 90.746094 867.332031 94.515625 C 870.269531 98.035156 871.738281 102.851562 871.738281 108.953125 L 871.738281 147.046875 L 867.210938 147.046875 L 867.210938 142.515625 L 890.546875 142.515625 L 890.546875 147.046875 L 886.023438 147.046875 L 886.023438 108.679688 C 886.023438 98.46875 883.28125 90.589844 877.800781 85.03125 C 872.339844 79.496094 864.695312 76.71875 854.867188 76.71875 C 848.320312 76.71875 842.65625 78.050781 837.890625 80.710938 C 833.230469 83.304688 829.679688 86.972656 827.234375 91.710938 C 824.703125 96.601562 823.441406 102.261719 823.441406 108.679688 L 823.441406 132.292969 C 823.441406 141.804688 824.613281 149.996094 826.957031 156.851562 C 829.316406 163.757812 832.105469 169.441406 835.328125 173.90625 C 838.703125 178.578125 843.277344 183.972656 849.054688 190.101562 C 854.152344 195.566406 858.179688 200.1875 861.121094 203.953125 C 864.273438 208.003906 866.875 212.84375 868.917969 218.476562 C 870.976562 224.164062 872.003906 230.582031 872.003906 237.730469 L 872.003906 260.800781 C 872.003906 266.546875 870.535156 271.179688 867.597656 274.699219 C 864.460938 278.472656 860.308594 280.355469 855.136719 280.355469 C 849.613281 280.355469 845.238281 278.425781 842.011719 274.578125 C 838.976562 270.964844 837.460938 265.746094 837.460938 258.925781 L 837.460938 221.898438 L 841.992188 221.898438 L 841.992188 226.429688 L 818.648438 226.429688 L 818.648438 221.898438 L 823.175781 221.898438 L 823.175781 259.191406 C 823.175781 270.273438 825.945312 278.542969 831.484375 284.003906 C 837.042969 289.484375 845.011719 292.226562 855.402344 292.226562 Z M 855.402344 292.226562 " fill-opacity="1" fill-rule="nonzero"/><path fill="#ffffff" d="M 131.300781 74.351562 C 143.269531 74.351562 152.65625 77.933594 159.457031 85.089844 C 166.25 92.234375 169.652344 102.242188 169.652344 115.109375 L 169.652344 253.820312 C 169.652344 262.226562 168.082031 269.515625 164.941406 275.6875 C 161.816406 281.867188 157.390625 286.570312 151.667969 289.792969 C 145.953125 293.003906 139.167969 294.605469 131.300781 294.605469 L 97.476562 294.605469 L 97.476562 74.351562 Z M 146.59375 113.789062 C 146.59375 107.890625 145.203125 103.378906 142.425781 100.257812 C 139.644531 97.117188 135.9375 95.546875 131.300781 95.546875 L 120.300781 95.546875 L 120.300781 273.410156 L 131.300781 273.410156 C 135.9375 273.410156 139.644531 271.851562 142.425781 268.726562 C 145.203125 265.589844 146.59375 261.066406 146.59375 255.167969 Z M 146.59375 113.789062 " fill-opacity="1" fill-rule="nonzero"/><path fill="#ffffff" d="M 225.453125 296.753906 C 217.773438 296.753906 211.070312 295.148438 205.34375 291.941406 C 199.613281 288.71875 195.230469 284.066406 192.199219 277.992188 C 189.15625 271.902344 187.644531 264.65625 187.644531 256.253906 L 187.644531 112.703125 C 187.644531 104.472656 189.15625 97.324219 192.199219 91.25 C 195.230469 85.160156 199.613281 80.472656 205.34375 77.171875 C 211.070312 73.859375 217.773438 72.203125 225.453125 72.203125 C 233.144531 72.203125 239.800781 73.820312 245.429688 77.042969 C 251.070312 80.25 255.453125 84.949219 258.578125 91.121094 C 261.714844 97.28125 263.285156 104.472656 263.285156 112.703125 L 263.285156 256.253906 C 263.285156 264.46875 261.765625 271.621094 258.730469 277.707031 C 255.691406 283.78125 251.3125 288.472656 245.585938 291.785156 C 239.855469 295.097656 233.144531 296.753906 225.453125 296.753906 Z M 225.453125 274.757812 C 229.746094 274.757812 233.230469 273.199219 235.90625 270.074219 C 238.597656 266.933594 239.945312 262.503906 239.945312 256.773438 L 239.945312 112.160156 C 239.945312 106.453125 238.597656 102.035156 235.90625 98.910156 C 233.230469 95.773438 229.746094 94.199219 225.453125 94.199219 C 220.980469 94.199219 217.441406 95.773438 214.839844 98.910156 C 212.253906 102.035156 210.960938 106.453125 210.960938 112.160156 L 210.960938 256.773438 C 210.960938 262.503906 212.253906 266.933594 214.839844 270.074219 C 217.441406 273.199219 220.980469 274.757812 225.453125 274.757812 Z M 225.453125 274.757812 " fill-opacity="1" fill-rule="nonzero"/><path fill="#ffffff" d="M 287.171875 74.351562 L 310.515625 74.351562 L 330.082031 199.890625 L 331.425781 199.890625 L 350.757812 74.351562 L 374.101562 74.351562 L 382.667969 294.605469 L 361.214844 294.605469 L 357.460938 138.738281 L 356.375 138.738281 L 336.007812 254.625 L 325.265625 254.625 L 305.132812 138.738281 L 303.789062 138.738281 L 299.777344 294.605469 L 278.324219 294.605469 Z M 287.171875 74.351562 " fill-opacity="1" fill-rule="nonzero"/><path fill="#ffffff" d="M 399.839844 74.351562 L 422.921875 74.351562 L 422.921875 294.605469 L 399.839844 294.605469 Z M 399.839844 74.351562 " fill-opacity="1" fill-rule="nonzero"/><path fill="#ffffff" d="M 443.570312 74.351562 L 467.195312 74.351562 L 504.488281 235.058594 L 505.835938 235.058594 L 503.6875 74.351562 L 524.882812 74.351562 L 524.882812 294.605469 L 500.996094 294.605469 L 463.703125 132.835938 L 462.617188 132.835938 L 464.503906 294.605469 L 443.570312 294.605469 Z M 443.570312 74.351562 " fill-opacity="1" fill-rule="nonzero"/><path fill="#ffffff" d="M 582.007812 296.753906 C 574.328125 296.753906 567.625 295.148438 561.902344 291.941406 C 556.167969 288.71875 551.789062 284.066406 548.753906 277.992188 C 545.714844 271.902344 544.199219 264.65625 544.199219 256.253906 L 544.199219 112.703125 C 544.199219 104.472656 545.714844 97.324219 548.753906 91.25 C 551.789062 85.160156 556.167969 80.472656 561.902344 77.171875 C 567.625 73.859375 574.328125 72.203125 582.007812 72.203125 C 589.699219 72.203125 596.359375 73.820312 601.988281 77.042969 C 607.628906 80.25 612.007812 84.949219 615.132812 91.121094 C 618.269531 97.28125 619.84375 104.472656 619.84375 112.703125 L 619.84375 256.253906 C 619.84375 264.46875 618.324219 271.621094 615.289062 277.707031 C 612.25 283.78125 607.867188 288.472656 602.140625 291.785156 C 596.410156 295.097656 589.699219 296.753906 582.007812 296.753906 Z M 582.007812 274.757812 C 586.304688 274.757812 589.785156 273.199219 592.464844 270.074219 C 595.15625 266.933594 596.5 262.503906 596.5 256.773438 L 596.5 112.160156 C 596.5 106.453125 595.15625 102.035156 592.464844 98.910156 C 589.785156 95.773438 586.304688 94.199219 582.007812 94.199219 C 577.539062 94.199219 574 95.773438 571.398438 98.910156 C 568.808594 102.035156 567.515625 106.453125 567.515625 112.160156 L 567.515625 256.773438 C 567.515625 262.503906 568.808594 266.933594 571.398438 270.074219 C 574 273.199219 577.539062 274.757812 582.007812 274.757812 Z M 582.007812 274.757812 " fill-opacity="1" fill-rule="nonzero"/><path fill="#ffffff" d="M 662.511719 189.71875 L 661.164062 189.71875 L 661.96875 294.605469 L 638.882812 294.605469 L 638.882812 74.351562 L 661.96875 74.351562 L 661.164062 173.339844 L 662.769531 173.339844 L 691.753906 74.351562 L 716.960938 74.351562 L 682.074219 178.695312 L 718.566406 294.605469 L 691.753906 294.605469 Z M 662.511719 189.71875 " fill-opacity="1" fill-rule="nonzero"/><path fill="#ffffff" d="M 779.480469 231.28125 L 753.449219 231.28125 L 747.003906 294.605469 L 724.488281 294.605469 L 753.734375 74.066406 L 779.480469 74.066406 L 808.726562 294.605469 L 785.925781 294.605469 Z M 777.335938 210.628906 L 767.136719 110.554688 L 765.792969 110.554688 L 755.597656 210.628906 Z M 777.335938 210.628906 " fill-opacity="1" fill-rule="nonzero"/><path fill="#ffffff" d="M 855.394531 296.753906 C 843.765625 296.753906 834.730469 293.585938 828.300781 287.230469 C 821.863281 280.882812 818.648438 271.542969 818.648438 259.203125 L 818.648438 221.914062 L 841.992188 221.914062 L 841.992188 258.917969 C 841.992188 264.652344 843.144531 268.902344 845.457031 271.679688 C 847.789062 274.441406 851.011719 275.820312 855.136719 275.820312 C 858.898438 275.820312 861.890625 274.484375 864.117188 271.808594 C 866.355469 269.117188 867.480469 265.453125 867.480469 260.808594 L 867.480469 237.726562 C 867.480469 231.117188 866.539062 225.21875 864.660156 220.023438 C 862.777344 214.835938 860.402344 210.410156 857.542969 206.746094 C 854.679688 203.074219 850.746094 198.558594 845.742188 193.1875 C 839.84375 186.925781 835.144531 181.386719 831.664062 176.574219 C 828.179688 171.746094 825.175781 165.664062 822.660156 158.328125 C 820.15625 150.996094 818.90625 142.320312 818.90625 132.292969 L 818.90625 108.691406 C 818.90625 101.535156 820.335938 95.183594 823.203125 89.644531 C 826.0625 84.09375 830.222656 79.796875 835.675781 76.757812 C 841.125 73.722656 847.527344 72.203125 854.878906 72.203125 C 865.953125 72.203125 874.664062 75.425781 881.015625 81.855469 C 887.363281 88.292969 890.539062 97.242188 890.539062 108.691406 L 890.539062 147.046875 L 867.195312 147.046875 L 867.195312 108.953125 C 867.195312 103.949219 866.070312 100.113281 863.832031 97.433594 C 861.605469 94.742188 858.707031 93.398438 855.136719 93.398438 C 851.371094 93.398438 848.285156 94.742188 845.871094 97.433594 C 843.453125 100.113281 842.25 103.769531 842.25 108.40625 L 842.25 131.207031 C 842.25 137.832031 843.1875 143.699219 845.070312 148.804688 C 846.945312 153.894531 849.367188 158.367188 852.316406 162.210938 C 855.265625 166.058594 859.15625 170.484375 863.988281 175.484375 C 869.886719 181.921875 874.578125 187.558594 878.066406 192.386719 C 881.546875 197.21875 884.542969 203.300781 887.046875 210.628906 C 889.5625 217.964844 890.824219 226.640625 890.824219 236.664062 L 890.824219 261.066406 C 890.824219 268.230469 889.386719 274.492188 886.527344 279.855469 C 883.664062 285.226562 879.546875 289.378906 874.183594 292.328125 C 868.816406 295.28125 862.550781 296.753906 855.394531 296.753906 Z M 855.394531 296.753906 " fill-opacity="1" fill-rule="nonzero"/><g clip-path="url(#101e8d521e)"><path fill="#efb810" d="M 165.277344 186.089844 C 118.613281 197.28125 96.648438 225.5625 89.671875 283.460938 C 88.386719 294.160156 87.21875 304.863281 84.769531 315.640625 C 82.53125 300.3125 80.5 284.949219 77.980469 269.671875 C 75.738281 256.125 71.550781 243.210938 65.410156 230.933594 C 52.808594 205.597656 36.21875 185.585938 3.59375 187.949219 C 4.382812 186.167969 4.648438 185.132812 4.90625 185.132812 C 41.039062 184.824219 57.558594 160.742188 69.65625 131.539062 C 79.617188 107.503906 81.261719 81.664062 85.167969 56.21875 C 88.96875 81.363281 90.683594 106.734375 100.257812 130.566406 C 103.769531 139.332031 107.78125 147.789062 113.078125 155.585938 C 126.140625 174.773438 130.4375 177.238281 165.277344 186.089844 Z M 246.914062 86.003906 C 226.960938 76.027344 223.34375 57.050781 217.636719 38.996094 C 212.390625 57.757812 207.964844 76 188.660156 86.203125 C 208.980469 96.324219 211.957031 115.523438 217.921875 136.925781 C 223.183594 114.890625 226.960938 96.1875 246.914062 86.003906 Z M 235.019531 265.332031 C 223.21875 259.429688 221.078125 248.210938 217.707031 237.53125 C 214.601562 248.625 211.988281 259.417969 200.570312 265.449219 C 212.585938 271.433594 214.34375 282.785156 217.871094 295.449219 C 220.996094 282.417969 223.226562 271.347656 235.019531 265.332031 Z M 235.019531 265.332031 " fill-opacity="1" fill-rule="nonzero"/></g></svg>