<svg xmlns="http://www.w3.org/2000/svg" xmlns:xlink="http://www.w3.org/1999/xlink" width="800" zoomAndPan="magnify" viewBox="0 0 600 599.999999" height="800" preserveAspectRatio="xMidYMid meet" version="1.0"><defs><g/><clipPath id="aaf8f40e43"><path d="M 0.707031 55.425781 L 130.003906 55.425781 L 130.003906 502.988281 L 0.707031 502.988281 Z M 0.707031 55.425781 " clip-rule="nonzero"/></clipPath><clipPath id="c826b5ae82"><path d="M 138 0.558594 L 448 0.558594 L 448 588.558594 L 138 588.558594 Z M 138 0.558594 " clip-rule="nonzero"/></clipPath><clipPath id="b5dcdc3d31"><rect x="0" width="310" y="0" height="589"/></clipPath><clipPath id="70ae9815fb"><path d="M 451.796875 58.027344 L 578.609375 58.027344 L 578.609375 500.617188 L 451.796875 500.617188 Z M 451.796875 58.027344 " clip-rule="nonzero"/></clipPath><clipPath id="6ddbed2818"><path d="M 0.796875 0.0273438 L 127.609375 0.0273438 L 127.609375 442.617188 L 0.796875 442.617188 Z M 0.796875 0.0273438 " clip-rule="nonzero"/></clipPath><clipPath id="ff1d6920f9"><rect x="0" width="128" y="0" height="443"/></clipPath><clipPath id="52485299de"><rect x="0" width="580" y="0" height="589"/></clipPath></defs><g transform="matrix(1, 0, 0, 1, 10, 4)"><g clip-path="url(#52485299de)"><g clip-path="url(#aaf8f40e43)"><path fill="#efb810" d="M 263.410156 294.40625 C 187.597656 312.589844 151.902344 358.535156 140.578125 452.605469 C 138.484375 469.992188 136.59375 487.375 132.613281 504.886719 C 128.96875 479.984375 125.667969 455.019531 121.578125 430.199219 C 117.9375 408.195312 111.132812 387.214844 101.160156 367.265625 C 80.679688 326.105469 53.730469 293.582031 0.722656 297.421875 C 2.007812 294.535156 2.433594 292.855469 2.851562 292.847656 C 61.558594 292.347656 88.398438 253.21875 108.058594 205.773438 C 124.238281 166.726562 126.914062 124.742188 133.257812 83.398438 C 139.433594 124.265625 142.21875 165.46875 157.769531 204.199219 C 163.480469 218.441406 170 232.179688 178.609375 244.84375 C 199.832031 276.023438 206.808594 280.023438 263.410156 294.40625 Z M 396.042969 131.796875 C 363.625 115.589844 357.746094 84.757812 348.476562 55.425781 C 339.953125 85.902344 332.765625 115.546875 301.398438 132.117188 C 334.414062 148.5625 339.25 179.761719 348.941406 214.53125 C 357.488281 178.734375 363.632812 148.335938 396.042969 131.796875 Z M 376.726562 423.152344 C 357.554688 413.5625 354.070312 395.335938 348.59375 377.984375 C 343.550781 396.011719 339.300781 413.539062 320.75 423.335938 C 340.273438 433.058594 343.132812 451.503906 348.863281 472.078125 C 353.9375 450.90625 357.566406 432.929688 376.726562 423.152344 Z M 376.726562 423.152344 " fill-opacity="1" fill-rule="nonzero"/></g><g clip-path="url(#c826b5ae82)"><g transform="matrix(1, 0, 0, 1, 138, -0.000000000000034639)"><g clip-path="url(#b5dcdc3d31)"><g fill="#ffffff" fill-opacity="1"><g transform="translate(0.600819, 470.199381)"><g><path d="M 67.238281 -358.828125 C 88.433594 -358.828125 105.167969 -352.367188 117.441406 -339.445312 C 129.617188 -326.632812 135.703125 -308.984375 135.703125 -286.503906 L 135.703125 -65.09375 C 135.703125 -50.523438 132.945312 -37.800781 127.429688 -26.921875 C 121.769531 -15.769531 113.738281 -7.265625 103.328125 -1.410156 C 93.089844 4.347656 81.0625 7.226562 67.238281 7.226562 L 6.050781 7.226562 L 6.050781 -358.828125 Z M 67.238281 -344.371094 L 13.277344 -344.371094 L 13.277344 -351.601562 L 20.503906 -351.601562 L 20.503906 0 L 13.277344 0 L 13.277344 -7.226562 L 67.238281 -7.226562 C 78.535156 -7.226562 88.203125 -9.488281 96.242188 -14.007812 C 104.101562 -18.429688 110.203125 -24.914062 114.539062 -33.460938 C 119.011719 -42.285156 121.25 -52.828125 121.25 -65.09375 L 121.25 -286.503906 C 121.25 -305.136719 116.488281 -319.464844 106.964844 -329.492188 C 97.539062 -339.414062 84.296875 -344.371094 67.238281 -344.371094 Z M 84.421875 -288.644531 C 84.421875 -296.242188 82.8125 -301.851562 79.597656 -305.480469 C 76.613281 -308.855469 72.492188 -310.539062 67.238281 -310.539062 L 49.679688 -310.539062 L 49.679688 -317.765625 L 56.90625 -317.765625 L 56.90625 -33.832031 L 49.679688 -33.832031 L 49.679688 -41.058594 L 67.238281 -41.058594 C 72.492188 -41.058594 76.613281 -42.746094 79.597656 -46.117188 C 82.8125 -49.746094 84.421875 -55.359375 84.421875 -62.953125 Z M 98.875 -288.644531 L 98.875 -62.953125 C 98.875 -51.707031 96.054688 -42.898438 90.417969 -36.535156 C 84.554688 -29.914062 76.828125 -26.605469 67.238281 -26.605469 L 42.449219 -26.605469 L 42.449219 -324.996094 L 67.238281 -324.996094 C 76.828125 -324.996094 84.554688 -321.683594 90.417969 -315.066406 C 96.054688 -308.699219 98.875 -299.894531 98.875 -288.644531 Z M 98.875 -288.644531 "/></g></g></g><g fill="#ffffff" fill-opacity="1"><g transform="translate(146.636257, 470.199381)"><g><path d="M 13.277344 -358.828125 L 56.703125 -358.828125 L 117.53125 -96.707031 L 110.492188 -95.074219 L 110.492188 -102.300781 L 112.632812 -102.300781 L 112.632812 -95.074219 L 105.40625 -94.976562 L 101.882812 -358.828125 L 150.265625 -358.828125 L 150.265625 7.226562 L 99.171875 7.226562 L 38.351562 -256.617188 L 45.394531 -258.238281 L 45.394531 -251.011719 L 43.683594 -251.011719 L 43.683594 -258.238281 L 50.910156 -258.324219 L 53.992188 7.226562 L 6.050781 7.226562 L 6.050781 -358.828125 Z M 13.277344 -344.371094 L 13.277344 -351.601562 L 20.503906 -351.601562 L 20.503906 0 L 13.277344 0 L 13.277344 -7.226562 L 46.679688 -7.226562 L 46.679688 0 L 39.453125 0.0820312 L 36.371094 -265.464844 L 51.144531 -265.464844 L 111.964844 -1.625 L 104.921875 0 L 104.921875 -7.226562 L 143.039062 -7.226562 L 143.039062 0 L 135.8125 0 L 135.8125 -351.601562 L 143.039062 -351.601562 L 143.039062 -344.371094 L 109.207031 -344.371094 L 109.207031 -351.601562 L 116.433594 -351.695312 L 119.957031 -87.847656 L 104.75 -87.847656 L 43.921875 -349.964844 L 50.960938 -351.601562 L 50.960938 -344.371094 Z M 13.277344 -344.371094 "/></g></g></g><g fill="#ffffff" fill-opacity="1"><g transform="translate(0.600819, 470.199381)"><g><path d="M 67.234375 -351.59375 C 86.359375 -351.59375 101.34375 -345.878906 112.1875 -334.453125 C 123.039062 -323.035156 128.46875 -307.050781 128.46875 -286.5 L 128.46875 -65.09375 C 128.46875 -51.675781 125.96875 -40.039062 120.96875 -30.1875 C 115.976562 -20.34375 108.914062 -12.847656 99.78125 -7.703125 C 90.644531 -2.566406 79.796875 0 67.234375 0 L 13.28125 0 L 13.28125 -351.59375 Z M 91.640625 -288.640625 C 91.640625 -298.054688 89.425781 -305.265625 85 -310.265625 C 80.582031 -315.265625 74.660156 -317.765625 67.234375 -317.765625 L 49.671875 -317.765625 L 49.671875 -33.828125 L 67.234375 -33.828125 C 74.660156 -33.828125 80.582031 -36.328125 85 -41.328125 C 89.425781 -46.328125 91.640625 -53.535156 91.640625 -62.953125 Z M 91.640625 -288.640625 "/></g></g></g><g fill="#ffffff" fill-opacity="1"><g transform="translate(146.636257, 470.199381)"><g><path d="M 13.28125 -351.59375 L 50.96875 -351.59375 L 110.484375 -95.078125 L 112.625 -95.078125 L 109.203125 -351.59375 L 143.03125 -351.59375 L 143.03125 0 L 104.921875 0 L 45.390625 -258.234375 L 43.6875 -258.234375 L 46.671875 0 L 13.28125 0 Z M 13.28125 -351.59375 "/></g></g></g></g></g></g><g clip-path="url(#70ae9815fb)"><g transform="matrix(1, 0, 0, 1, 451, 58)"><g clip-path="url(#ff1d6920f9)"><g clip-path="url(#6ddbed2818)"><path fill="#efb810" d="M -132.214844 236.984375 C -57.042969 255.011719 -21.648438 300.570312 -10.421875 393.84375 C -8.347656 411.082031 -6.46875 428.316406 -2.523438 445.683594 C 1.089844 420.988281 4.363281 396.238281 8.417969 371.628906 C 12.027344 349.808594 18.777344 329.007812 28.660156 309.226562 C 48.96875 268.414062 75.691406 236.167969 128.25 239.972656 C 126.972656 237.113281 126.550781 235.445312 126.136719 235.441406 C 67.929688 234.941406 41.316406 196.148438 21.824219 149.101562 C 5.78125 110.386719 3.125 68.753906 -3.164062 27.765625 C -9.285156 68.28125 -12.050781 109.140625 -27.464844 147.539062 C -33.128906 161.660156 -39.59375 175.285156 -48.128906 187.839844 C -69.171875 218.757812 -76.09375 222.722656 -132.214844 236.984375 Z M -263.722656 75.753906 C -231.578125 59.683594 -225.75 29.109375 -216.558594 0.0273438 C -208.105469 30.246094 -200.980469 59.640625 -169.878906 76.070312 C -202.617188 92.375 -207.410156 123.3125 -217.019531 157.785156 C -225.496094 122.289062 -231.585938 92.152344 -263.722656 75.753906 Z M -244.570312 364.636719 C -225.558594 355.132812 -222.105469 337.058594 -216.671875 319.855469 C -211.675781 337.730469 -207.460938 355.105469 -189.070312 364.824219 C -208.425781 374.460938 -211.257812 392.753906 -216.941406 413.148438 C -221.972656 392.160156 -225.570312 374.335938 -244.570312 364.636719 Z M -244.570312 364.636719 " fill-opacity="1" fill-rule="nonzero"/></g></g></g></g></g></g></svg>